<mxfile host="" modified="2021-02-21T14:18:03.139Z" agent="5.0 (Macintosh; Intel Mac OS X 10_15_7) AppleWebKit/537.36 (KHTML, like Gecko) Chrome/84.0.4147.105 Safari/537.36" version="13.7.9" etag="B2t_5JXPdHoa19snkQZ3" type="embed"><diagram id="exn_H4tSJFlK1cwNKkhw" name="Page-1"><mxGraphModel dx="678" dy="537" grid="1" gridSize="10" guides="1" tooltips="1" connect="1" arrows="1" fold="1" page="1" pageScale="1" pageWidth="850" pageHeight="1100" math="0" shadow="0"><root><mxCell id="0"/><mxCell id="1" parent="0"/><mxCell id="2" value="Client" style="html=1;" vertex="1" parent="1"><mxGeometry x="80" y="160" width="160" height="50" as="geometry"/></mxCell><mxCell id="3" value="FlyweightFactory" style="swimlane;fontStyle=0;childLayout=stackLayout;horizontal=1;startSize=26;fillColor=none;horizontalStack=0;resizeParent=1;resizeParentMax=0;resizeLast=0;collapsible=1;marginBottom=0;" vertex="1" parent="1"><mxGeometry x="80" y="280" width="160" height="52" as="geometry"/></mxCell><mxCell id="4" value="GetFlyweight(key)" style="text;strokeColor=none;fillColor=none;align=left;verticalAlign=top;spacingLeft=4;spacingRight=4;overflow=hidden;rotatable=0;points=[[0,0.5],[1,0.5]];portConstraint=eastwest;" vertex="1" parent="3"><mxGeometry y="26" width="160" height="26" as="geometry"/></mxCell><mxCell id="15" value="" style="html=1;verticalAlign=bottom;endArrow=block;exitX=0.5;exitY=1;exitDx=0;exitDy=0;entryX=0.5;entryY=0;entryDx=0;entryDy=0;" edge="1" parent="1" source="2" target="3"><mxGeometry width="80" relative="1" as="geometry"><mxPoint x="250" y="380" as="sourcePoint"/><mxPoint x="330" y="380" as="targetPoint"/></mxGeometry></mxCell><mxCell id="16" value="" style="group" vertex="1" connectable="0" parent="1"><mxGeometry x="140" y="320" width="200" height="210" as="geometry"/></mxCell><mxCell id="7" value="if (flyweight[key)] exists ) {&lt;br&gt;&amp;nbsp; &amp;nbsp; return existing flyweight;&lt;br&gt;} else {&lt;br&gt;&amp;nbsp; &amp;nbsp; create new flyweight;&lt;br&gt;&amp;nbsp; &amp;nbsp; add it to pool of flyweight;&lt;br&gt;&amp;nbsp; &amp;nbsp; return the new flyweight;&lt;br&gt;}" style="shape=note;whiteSpace=wrap;html=1;size=14;verticalAlign=top;align=left;spacingTop=-6;" vertex="1" parent="16"><mxGeometry y="95.45454545454545" width="200" height="114.54545454545455" as="geometry"/></mxCell><mxCell id="12" value="" style="shape=umlLifeline;participant=umlEntity;perimeter=lifelinePerimeter;whiteSpace=wrap;html=1;container=1;collapsible=0;recursiveResize=0;verticalAlign=top;spacingTop=36;outlineConnect=0;size=10;" vertex="1" parent="16"><mxGeometry x="50" width="10" height="95.45454545454545" as="geometry"/></mxCell><mxCell id="21" value="flyweights" style="endArrow=open;html=1;endSize=12;startArrow=diamondThin;startSize=14;startFill=0;edgeStyle=orthogonalEdgeStyle;align=left;verticalAlign=bottom;exitX=1.013;exitY=0.104;exitDx=0;exitDy=0;exitPerimeter=0;entryX=0;entryY=0.062;entryDx=0;entryDy=0;entryPerimeter=0;" edge="1" parent="1" source="4" target="18"><mxGeometry x="-1" y="3" relative="1" as="geometry"><mxPoint x="210" y="380" as="sourcePoint"/><mxPoint x="370" y="380" as="targetPoint"/></mxGeometry></mxCell><mxCell id="22" value="ConreteFlyweight" style="swimlane;fontStyle=1;align=center;verticalAlign=top;childLayout=stackLayout;horizontal=1;startSize=26;horizontalStack=0;resizeParent=1;resizeParentMax=0;resizeLast=0;collapsible=1;marginBottom=0;" vertex="1" parent="1"><mxGeometry x="320" y="120" width="160" height="86" as="geometry"/></mxCell><mxCell id="23" value="Operation(extrinsicState)" style="text;strokeColor=none;fillColor=none;align=left;verticalAlign=top;spacingLeft=4;spacingRight=4;overflow=hidden;rotatable=0;points=[[0,0.5],[1,0.5]];portConstraint=eastwest;" vertex="1" parent="22"><mxGeometry y="26" width="160" height="26" as="geometry"/></mxCell><mxCell id="24" value="" style="line;strokeWidth=1;fillColor=none;align=left;verticalAlign=middle;spacingTop=-1;spacingLeft=3;spacingRight=3;rotatable=0;labelPosition=right;points=[];portConstraint=eastwest;" vertex="1" parent="22"><mxGeometry y="52" width="160" height="8" as="geometry"/></mxCell><mxCell id="25" value="intrinsicState" style="text;strokeColor=none;fillColor=none;align=left;verticalAlign=top;spacingLeft=4;spacingRight=4;overflow=hidden;rotatable=0;points=[[0,0.5],[1,0.5]];portConstraint=eastwest;" vertex="1" parent="22"><mxGeometry y="60" width="160" height="26" as="geometry"/></mxCell><mxCell id="26" value="UnsharedConcreteFlyweight" style="swimlane;fontStyle=1;align=center;verticalAlign=top;childLayout=stackLayout;horizontal=1;startSize=26;horizontalStack=0;resizeParent=1;resizeParentMax=0;resizeLast=0;collapsible=1;marginBottom=0;" vertex="1" parent="1"><mxGeometry x="520" y="120" width="200" height="86" as="geometry"/></mxCell><mxCell id="27" value="Operation(extrinsicState)" style="text;strokeColor=none;fillColor=none;align=left;verticalAlign=top;spacingLeft=4;spacingRight=4;overflow=hidden;rotatable=0;points=[[0,0.5],[1,0.5]];portConstraint=eastwest;" vertex="1" parent="26"><mxGeometry y="26" width="200" height="26" as="geometry"/></mxCell><mxCell id="28" value="" style="line;strokeWidth=1;fillColor=none;align=left;verticalAlign=middle;spacingTop=-1;spacingLeft=3;spacingRight=3;rotatable=0;labelPosition=right;points=[];portConstraint=eastwest;" vertex="1" parent="26"><mxGeometry y="52" width="200" height="8" as="geometry"/></mxCell><mxCell id="29" value="intrinsicState" style="text;strokeColor=none;fillColor=none;align=left;verticalAlign=top;spacingLeft=4;spacingRight=4;overflow=hidden;rotatable=0;points=[[0,0.5],[1,0.5]];portConstraint=eastwest;" vertex="1" parent="26"><mxGeometry y="60" width="200" height="26" as="geometry"/></mxCell><mxCell id="30" value="" style="html=1;verticalAlign=bottom;endArrow=block;exitX=0.5;exitY=0;exitDx=0;exitDy=0;entryX=0.5;entryY=0;entryDx=0;entryDy=0;" edge="1" parent="1" source="2" target="22"><mxGeometry width="80" relative="1" as="geometry"><mxPoint x="280" y="90" as="sourcePoint"/><mxPoint x="390" y="70" as="targetPoint"/><Array as="points"><mxPoint x="160" y="60"/><mxPoint x="400" y="60"/></Array></mxGeometry></mxCell><mxCell id="31" value="" style="html=1;verticalAlign=bottom;endArrow=block;exitX=0.5;exitY=0;exitDx=0;exitDy=0;entryX=0.529;entryY=-0.032;entryDx=0;entryDy=0;entryPerimeter=0;" edge="1" parent="1" source="2" target="26"><mxGeometry width="80" relative="1" as="geometry"><mxPoint x="629.9999999999999" y="40" as="sourcePoint"/><mxPoint x="629.9999999999999" y="110" as="targetPoint"/><Array as="points"><mxPoint x="160" y="60"/><mxPoint x="626" y="60"/></Array></mxGeometry></mxCell><mxCell id="32" value="" style="endArrow=diamondThin;endFill=0;endSize=24;html=1;exitX=0.5;exitY=0;exitDx=0;exitDy=0;" edge="1" parent="1" source="17"><mxGeometry width="160" relative="1" as="geometry"><mxPoint x="580" y="250" as="sourcePoint"/><mxPoint x="500" y="240" as="targetPoint"/></mxGeometry></mxCell><mxCell id="17" value="Flyweight" style="swimlane;fontStyle=0;childLayout=stackLayout;horizontal=1;startSize=26;fillColor=none;horizontalStack=0;resizeParent=1;resizeParentMax=0;resizeLast=0;collapsible=1;marginBottom=0;" vertex="1" parent="1"><mxGeometry x="420" y="280" width="160" height="70" as="geometry"/></mxCell><mxCell id="18" value="GetFlyweight(key)&#10;Operation(extrinsicState)" style="text;strokeColor=none;fillColor=none;align=left;verticalAlign=top;spacingLeft=4;spacingRight=4;overflow=hidden;rotatable=0;points=[[0,0.5],[1,0.5]];portConstraint=eastwest;" vertex="1" parent="17"><mxGeometry y="26" width="160" height="44" as="geometry"/></mxCell><mxCell id="34" value="" style="endArrow=none;html=1;edgeStyle=orthogonalEdgeStyle;exitX=0.5;exitY=1;exitDx=0;exitDy=0;" edge="1" parent="1" source="22"><mxGeometry relative="1" as="geometry"><mxPoint x="370" y="290" as="sourcePoint"/><mxPoint x="500" y="240" as="targetPoint"/><Array as="points"><mxPoint x="400" y="240"/></Array></mxGeometry></mxCell><mxCell id="37" value="" style="endArrow=none;html=1;edgeStyle=orthogonalEdgeStyle;exitX=0.55;exitY=1.013;exitDx=0;exitDy=0;exitPerimeter=0;" edge="1" parent="1" source="29"><mxGeometry relative="1" as="geometry"><mxPoint x="630" y="220" as="sourcePoint"/><mxPoint x="500" y="240" as="targetPoint"/><Array as="points"><mxPoint x="630" y="240"/></Array></mxGeometry></mxCell></root></mxGraphModel></diagram></mxfile>